<?xml version="1.0" encoding="utf-8"?>
<!-- Generator: Adobe Illustrator 21.0.0, SVG Export Plug-In . SVG Version: 6.00 Build 0)  -->
<svg version="1.1" id="图层_1" xmlns="http://www.w3.org/2000/svg" xmlns:xlink="http://www.w3.org/1999/xlink" x="0px" y="0px"
	 viewBox="0 0 200 200" style="enable-background:new 0 0 200 200;" xml:space="preserve">
<g>
	<path d="M99.5,86.5c-14.3,0-25.9,11.6-25.9,25.9s11.6,25.9,25.9,25.9s25.9-11.6,25.9-25.9C125.4,98.1,113.8,86.5,99.5,86.5z"/>
	<path d="M173.5,48.7h-29.9c0-14.3-11.6-25.9-25.9-25.9H81.9C67.6,22.8,56,34.4,56,48.7H26.1c-14.3,0-25.9,11.6-25.9,25.9v75.7
		c0,14.3,11.6,25.9,25.9,25.9h147.4c14.3,0,25.9-11.6,25.9-25.9V74.6C199.4,60.3,187.8,48.7,173.5,48.7z M99.8,158.2
		c-25.3,0-45.8-20.6-45.8-45.8c0-25.3,20.5-45.8,45.8-45.8s45.8,20.6,45.8,45.8C145.6,137.7,125.1,158.2,99.8,158.2z"/>
</g>
</svg>
