<?xml version="1.0" encoding="utf-8"?>
<!-- Generator: Adobe Illustrator 21.0.2, SVG Export Plug-In . SVG Version: 6.00 Build 0)  -->
<svg version="1.1" id="图层_1" xmlns="http://www.w3.org/2000/svg" xmlns:xlink="http://www.w3.org/1999/xlink" x="0px" y="0px"
	 viewBox="0 0 736.9 567.8" style="enable-background:new 0 0 736.9 567.8;" xml:space="preserve">
<g>
	<g>
		<g>
			<path d="M580.6,115.7l-13.2-40.5c-9.3-50.7-44.3-75.1-87.3-75.1H207.6c-49.3,0-79.3,32.8-87.3,75.1l-29.1,89.3
				c-2.7-1.6-5.6-2.5-8.9-2.5H17.9C8,162,0,170.2,0,180.4v15.9c0,10,8,18.2,17.9,18.2l24.4,4.2C34.6,234,30.2,251.6,30.2,272
				l-9,105.2c0,3,0.2,6.1,0.5,9.3c-0.3,1.9-0.5,3.9-0.5,5.9V519c0,18,14.3,32.6,32,32.6h48.9c17.7,0,32-14.6,32-32.6v-40.7h197.7
				c41.5,53.9,106,88.5,178.4,88.5c125.3,0,226.8-103.5,226.8-231.3C736.8,233,671.3,146,580.6,115.7L580.6,115.7z M141.9,143.3
				l21.3-57.8l0.3-1.3c2.1-11.7,6.8-13.8,13.8-22.9h333.6c7.1,9.3,11.4,11.6,13.3,22.7l7.8,21.4c-7.2-0.7-14.6-1.1-22-1.1
				c-83.1,0-155.7,45.6-195.2,113.5H186.6c-23.1,0-50.9-18.6-52.7-42.2L141.9,143.3z M156.8,418.4c-26.7,0-48.4-22.1-48.4-49.4
				s21.7-49.3,48.4-49.3s48.4,22.1,48.4,49.3C205.2,396.2,183.5,418.4,156.8,418.4L156.8,418.4z M272.2,396.6
				c-5.3,0-9.7-6.6-9.7-14.7v-41.3c0-8.1,4.3-14.7,9.7-14.7h11.3c-0.1,3.2-0.2,6.4-0.2,9.6c0,21.1,2.8,41.6,8,61h-19.1V396.6z
				 M375.7,447.6v-53.1h276.4l0.2,53.1H375.7z M375.7,361.6v-53.1h276.4l0.2,53.1H375.7z M375.7,276.3v-53.1h276.4l0.2,53.1H375.7z"
				/>
		</g>
	</g>
</g>
</svg>
