<?xml version="1.0" encoding="utf-8"?>
<!-- Generator: Adobe Illustrator 21.0.2, SVG Export Plug-In . SVG Version: 6.00 Build 0)  -->
<svg version="1.1" id="图层_1" xmlns="http://www.w3.org/2000/svg" xmlns:xlink="http://www.w3.org/1999/xlink" x="0px" y="0px"
	 viewBox="0 0 818 728" style="enable-background:new 0 0 818 728" xml:space="preserve">
<g>
	<g>
		<path d="M657,630.3H160.7c-14.7,0-27.2-10.5-29.8-25L59,215.1c-2.2-12.5,3.7-25.1,14.7-31.4c11.1-6.3,24.9-5,34.6,3.2l151.5,128.9
			l123.7-191.4c11.1-17.3,39.6-17.3,50.7,0l123.7,191.2l151.4-128.9c9.7-8.3,23.6-9.5,34.6-3.2c11.1,6.3,16.9,18.9,14.7,31.4
			l-71.8,390.4C684.3,619.7,671.7,630.3,657,630.3L657,630.3z M657,728H160.7c-16.7,0-30.3-13.6-30.3-30.3
			c0-16.7,13.6-30.3,30.3-30.3H657c16.7,0,30.3,13.6,30.3,30.3C687.3,714.4,673.7,728,657,728L657,728z M0,125.6
			c0,17.3,9.2,33.3,24.2,42c15,8.7,33.5,8.7,48.5,0c15-8.7,24.2-24.7,24.2-42c0-17.3-9.2-33.3-24.2-42c-15-8.7-33.5-8.7-48.5,0
			C9.2,92.3,0,108.2,0,125.6L0,125.6z M361.8,48.5c0,26.8,21.7,48.4,48.5,48.4c26.8,0,48.5-21.7,48.5-48.4C458.7,21.7,437,0,410.3,0
			C383.5,0,361.8,21.7,361.8,48.5L361.8,48.5z M721.1,122.8c0,26.8,21.7,48.5,48.5,48.5c26.8,0,48.5-21.7,48.5-48.5
			c0-26.8-21.7-48.5-48.5-48.5C742.8,74.3,721.1,96,721.1,122.8L721.1,122.8z M721.1,122.8"/>
	</g>
</g>
</svg>
