<?xml version="1.0" encoding="utf-8"?>
<!-- Generator: Adobe Illustrator 21.0.2, SVG Export Plug-In . SVG Version: 6.00 Build 0)  -->
<svg version="1.1" id="图层_1" xmlns="http://www.w3.org/2000/svg" xmlns:xlink="http://www.w3.org/1999/xlink" x="0px" y="0px"
	 viewBox="0 0 725.3 572" style="enable-background:new 0 0 725.3 572;" xml:space="preserve">
<g>
	<g>
		<path d="M725.3,435.2l-12.2-184c-2.7-39.5-31.3-71.3-63.9-71.3h-30.8l-12.9-27.3h25.3c4.4,0,9.5-4.8,11.7-11.6l6.3-19.1
			c3.1-9.6,1-18.5-5.2-18.5H582l-43.7-91.6C535.2,5.3,526.9,0,520,0H202.5c-7.1,0-15.2,5.3-18.3,11.9l-43.7,91.6H82.1
			c-6.2,0-8.6,8.9-5.2,18.5l6.2,19.1c2.1,6.8,7.3,11.6,11.9,11.6h22.1L104.2,180h-28c-32.7,0-61.4,31.5-63.8,71.3l-12.3,184
			c-1,14.1,7.7,25.7,19.1,25.7h29.1v86.4c0,13.5,9.3,24.6,20.8,24.6h37.4c11.4,0,20.8-11,20.8-24.6V461h470.5v86.4
			c0,13.5,9.5,24.6,20.9,24.6h37.5c11.4,0,20.8-11,20.8-24.6V461h29.2C717.7,461,726.3,449.3,725.3,435.2L725.3,435.2z M207.5,43.3
			c3.1-7.8,11.4-14.1,19.1-14.1h270.6c7.5,0,16,6.2,19.1,14.1l52.6,136.8H155.3L207.5,43.3L207.5,43.3z M156.7,387.1H75.5
			c-11.4,0-20.8-11-20.8-24.6c0-13.5,9.3-24.6,20.8-24.6h81.3c11.4,0,20.8,11,20.8,24.6C177.5,376.1,168.2,387.1,156.7,387.1
			L156.7,387.1z M650.2,387.1h-81.3c-11.4,0-20.8-11-20.8-24.6c0-13.5,9.3-24.6,20.8-24.6h81.3c11.4,0,20.8,11,20.8,24.6
			C670.9,376.1,661.6,387.1,650.2,387.1L650.2,387.1z"/>
	</g>
</g>
</svg>
