<?xml version="1.0" encoding="utf-8"?>
<!-- Generator: Adobe Illustrator 21.0.2, SVG Export Plug-In . SVG Version: 6.00 Build 0)  -->
<svg version="1.1" id="Layer_2" xmlns="http://www.w3.org/2000/svg" xmlns:xlink="http://www.w3.org/1999/xlink" x="0px" y="0px"
	 viewBox="0 0 36.2 24.2" style="enable-background:new 0 0 36.2 24.2;" xml:space="preserve">
<style type="text/css">
	.st0{fill-rule:evenodd;clip-rule:evenodd;}
</style>
<g>
	<polygon class="st0" points="0,0 9.1,0 9.1,3 0,3 0,0 	"/>
	<polygon class="st0" points="3,3 12.1,3 12.1,6 3,6 3,3 	"/>
	<polygon class="st0" points="6,6 15.1,6 15.1,9.1 6,9.1 6,6 	"/>
	<polygon class="st0" points="6,15.1 15.1,15.1 15.1,18.1 6,18.1 6,15.1 	"/>
	<polygon class="st0" points="3,18.1 12.1,18.1 12.1,21.1 3,21.1 3,18.1 	"/>
	<polygon class="st0" points="0,21.1 9.1,21.1 9.1,24.2 0,24.2 0,21.1 	"/>
	<polygon class="st0" points="18.1,15.1 9,15.1 9,9 18.1,9 18.1,15.1 	"/>
	<polygon class="st0" points="18.1,0 27.2,0 27.2,3 18.1,3 18.1,0 	"/>
	<polygon class="st0" points="21.1,3 30.2,3 30.2,6 21.1,6 21.1,3 	"/>
	<polygon class="st0" points="24.2,6 33.2,6 33.2,9.1 24.2,9.1 24.2,6 	"/>
	<polygon class="st0" points="24.2,15.1 33.2,15.1 33.2,18.1 24.2,18.1 24.2,15.1 	"/>
	<polygon class="st0" points="21.1,18.1 30.2,18.1 30.2,21.1 21.1,21.1 21.1,18.1 	"/>
	<polygon class="st0" points="18.1,21.1 27.2,21.1 27.2,24.2 18.1,24.2 18.1,21.1 	"/>
	<polygon class="st0" points="36.2,15.1 27.1,15.1 27.1,9 36.2,9 36.2,15.1 	"/>
</g>
</svg>
